<?xml version="1.0" encoding="UTF-8" standalone="no"?>
<svg id="svg2" xmlns:rdf="http://www.w3.org/1999/02/22-rdf-syntax-ns#" xmlns="http://www.w3.org/2000/svg" viewBox="0 0 433.72966 238.69098" height="67.364mm" width="122.41mm" version="1.1" xmlns:cc="http://creativecommons.org/ns#" xmlns:dc="http://purl.org/dc/elements/1.1/">
<g id="layer1" transform="translate(-130.68 -206.04)">
<g id="g4158" transform="matrix(1.0298 0 0 1.0298 -448.96 -429.84)">
<path id="path4171" d="m589.8 842.21c-1.9018-15.476-0.27618-31.015 5.9035-56.431 2.4639-10.133 10.881-38.702 12.65-42.936l1.1175-2.6745-2.5952-1.9795c-2.5358-1.9341-2.6264-1.9478-3.9569-0.59742-1.5658 1.5892-4.237 13.695-5.0022 22.67l-0.49525 5.8085-3.3169-0.0148c-1.8243-0.008-3.7753-0.0513-4.3355-0.096-1.2435-0.0993-0.79428-8.4115 0.91971-17.02 1.093-5.4892 1.0916-5.5053-0.32456-3.6855-2.7791 3.5714-5.4786 9.9927-5.8419 13.896-0.36825 3.9569-0.37151 3.9613-3.9668 5.3698-1.979 0.77528-3.8033 1.2036-4.054 0.95193-0.25068-0.25172-0.45402-2.9998-0.45188-6.1068 0.004-4.8561 0.3456-6.372 2.4377-10.797 1.3386-2.8315 2.9656-5.7358 3.6156-6.4541 1.9155-2.1166 0.56907-2.2837-2.4864-0.30857-3.8119 2.4642-6.642 5.2435-7.9863 7.843l-1.1119 2.1503-2.7645-1.1483c-5.7397-2.3841-5.6136-2.2088-3.7908-5.2701 4.7355-7.953 13.305-13.57 24.394-15.988 7.1215-1.5532 7.9817-2.4389 5.9375-6.114-0.8356-1.5023-2.5693-5.7166-3.8528-9.3653-8.8259-25.091-7.5368-44.411 4.1375-62.009 4.3733-6.5923 8.8528-11.232 16.066-16.639 10.444-7.8303 36.31-20.86 52.336-17.15 11.689 1.8755 20.537 6.8662 30.17 13.15 15.275 9.964 16.343 17.507 20.843 33.263 0.95777 3.3532 1.2954 7.7109 1.3962 18.022 0.12296 12.571 0.23811 13.641 1.5238 14.154 3.8654 1.5426 28.076 10.139 29.032 10.309 0.6081 0.10781 2.7641-0.19203 4.7911-0.66621 2.027-0.47417 4.9929-1.0469 6.5909-1.2726 1.598-0.22579 2.9924-0.49755 3.0988-0.60394 0.10643-0.10643-0.11645-2.337-0.49503-4.9569-1.0928-7.5613-0.86355-24.369 0.4197-30.777 2.886-14.411 11.953-24.736 32.261-36.736 11.177-6.8898 17.074-9.4258 29.7-11.593 18.12-3.1108 28.749 3.3461 38.594 9.9606 6.1978 4.1643 17.32 18.003 21.982 24.346 7.939 10.8 11.954 21.99 11.947 33.301-0.003 3.7046-0.30175 7.8966-0.66557 9.3155-1.7345 6.765-1.7917 6.4464 1.2278 6.8358 5.8997 0.76091 46.074 7.1193 46.266 7.3224 0.11144 0.11833-0.11808 2.0606-0.51024 4.3163l-0.71295 4.1012-8.9798-1.3292c-4.9389-0.73106-9.2195-1.2498-9.5126-1.1528-0.29305 0.097 2.6155 1.9941 6.4634 4.2158 4.0352 2.3298 6.8533 4.4118 6.6585 4.9193-0.18571 0.48396-1.1827 2.2185-2.2155 3.8546l-1.8778 2.9747-7.1962-4.2316c-3.9579-2.3274-8.8216-5.1765-10.808-6.3314l-3.6119-2.0999 2.1377 2.8479c1.1757 1.5663 4.2462 5.5 6.8232 8.7415l4.6855 5.8936-2.4281 2.0271c-1.3355 1.1149-2.283 2.1428-2.1057 2.2842 6.289 5.0155 34.978 27.275 46.734 36.26 13.503 10.32 18.821 14.567 18.805 15.018-0.009 0.2534-7.3887 4.3587-16.4 9.1229-9.0116 4.7642-23.682 12.519-32.601 17.233-26.547 14.032-25.424 13.344-25.475 15.602-0.0248 1.095-0.77109 4.4786-1.6585 7.5192l-1.6134 5.5282-4.6069 0.21945-4.6068 0.21944v-2.2465c0-2.0948-0.18662-2.2502-2.7641-2.3011-1.5203-0.03-4.0039-0.61054-5.5191-1.2899l-2.755-1.2353 1.7915-3.8519 1.7914-3.852 2.9239 1.0316c1.6082 0.56738 3.0837 0.87185 3.2789 0.67658 1.0145-1.0145-0.70377-3.1016-3.7691-4.5781-1.9002-0.91533-4.4498-2.4718-5.6656-3.4588l-2.2106-1.7946 3.112-3.112 3.112-3.112 2.2749 1.6819 2.2749 1.6819-0.40363-2.4499c-0.222-1.3474-1.0892-8.4203-1.9271-15.718-0.83788-7.2972-2.0193-16.75-2.6253-21.007-0.60604-4.2567-1.2646-8.9004-1.4635-10.319-2.0818-14.852-6.0928-35.961-8.148-42.882l-1.0541-3.5496-4.524 4.8362c-9.0786 9.7051-21.471 17.602-31.276 19.93-9.2402 2.1941-29.364 1.0055-35.184-2.0783-0.96893-0.51336-1.5447-0.47248-1.921 0.13641-0.29555 0.47822-0.76098 6.4-1.0343 13.16-0.49068 12.137-2.6344 79.677-2.6536 83.604-0.01 1.9874-0.0973 2.027-4.4803 2.027h-4.4704l0.43729-11.241c0.24051-6.1824 0.76321-22.187 1.1616-35.565 0.39835-13.378 1.0736-31.407 1.5006-40.063 0.42697-8.6564 0.6721-15.79 0.54473-15.852-0.12737-0.0625-2.8851-1.3896-6.1284-2.9491-6.3384-3.0478-14.26-8.0859-17.452-11.099-1.2193-1.1511-6.7079-3.5762-14.373-6.3508-14.437-5.2257-13.901-5.22-26.114-0.28064-9.3407 3.7777-32.489 14.879-33.144 15.895-0.23095 0.35821 1.017 9.0208 2.7732 19.25s5.6664 33.193 8.6894 51.031 5.7139 33.51 5.9798 34.828l0.48349 2.3956h-4.5007c-4.0578 0-4.5399-0.1632-4.8995-1.6585-0.49027-2.0386-6.3408-36.559-8.8382-52.15-1.0066-6.2837-2.4931-14.908-3.3033-19.164-0.81021-4.2567-2.6395-14.821-4.0651-23.477-2.5885-15.717-3.095-17.828-3.9692-16.544-0.92435 1.3574-9.4504 6.0473-14.986 8.243-3.1239 1.2392-9.0943 2.9562-13.268 3.8156-6.5722 1.3534-9.1173 1.5039-19.013 1.124-6.2837-0.24121-12.583-0.52047-13.999-0.62059l-2.574-0.18202-2.0004 21.744c-2.6939 29.283-3.2193 35.107-4.9861 55.282-0.8343 9.527-1.6997 18.731-1.9231 20.454l-0.40613 3.1327h-4.4726-4.4726l0.4559-4.9754c4.0353-44.038 6.3712-71.306 6.1623-71.932-0.2971-0.89131-6.5131 24.188-8.1919 33.051-2.3016 12.151-2.8627 19.062-2.364 29.115 0.27146 5.4729 0.68563 11.029 0.92035 12.346l0.42681 2.3956h-6.5994-6.5994l-0.85526-6.9594zm315.76-20.21c0.38512-0.34844 5.6756-3.2098 11.757-6.3586 6.081-3.1488 12.715-6.6383 14.742-7.7543 2.027-1.1161 7.1682-3.8508 11.425-6.0772 14.377-7.5193 18.428-9.7507 18.386-10.128-0.0229-0.20649-2.0916-1.8681-4.5969-3.6924-3.8308-2.7895-19.696-14.947-23.371-17.909-9.9904-8.0528-42.368-32.799-42.617-32.572-0.1288 0.11707 0.59751 4.6406 1.614 10.052 3.3749 17.968 10.045 66.45 10.045 73.013 0 2.041 1.2089 2.7 2.6167 1.4264zm-62.344-78.726c5.7008-1.5821 9.1229-3.4638 15.87-8.7261 13.32-10.389 22.543-23.182 25.814-35.806 1.3831-5.3377 1.5153-15.242 0.27141-20.336-2.2832-9.3493-9.4804-20.261-19.636-29.77-13.573-12.709-26.734-17.999-43.594-17.523-7.5788 0.4347-12.236 2.0254-18.636 5.2154-17.024 8.4853-29.333 19.189-32.834 28.551-2.7403 7.3275-3.5776 19.244-2.1397 30.455 1.3858 10.804 4.5844 21.555 7.9042 26.567 6.131 9.2561 29.408 20.425 47.101 22.601 6.0751 0.74701 14.681 0.21594 19.879-1.2268zm-34.253-23.887c-8.3349-1.3987-14.514-4.5826-19.743-10.172-5.0414-5.3896-4.5942-8.9388 1.1263-8.9388 2.4572 0 3.3497 0.52907 6.7258 3.9871 2.9422 3.0136 4.8691 4.2875 7.8916 5.2175 5.5711 1.7142 17.955 2.2149 28.328 1.1455 13.444-1.3861 21.033-4.1287 29.299-10.589 2.3332-1.8235 4.6551-3.2293 5.1597-3.124 6.1433 1.2818 5.9644 6.1448-0.39895 10.846-4.5678 3.3747-15.622 8.3866-21.534 9.7627-10.339 2.407-28.229 3.312-36.855 1.8645zm29.263-36.643c-2.6774-2.8662-4.5225-8.595-5.0788-15.769-0.49361-6.3656-0.0811-7.1892 4.5756-9.1349 6.6809-2.7914 11.808 1.3368 12.633 10.172 0.8494 9.096-2.0609 15.699-7.2873 16.534-2.3978 0.38305-3.0167 0.15274-4.8427-1.8021zm-34.577-2.0072c-3.4459-2.4136-5.8616-13.999-3.9613-18.997 1.5255-4.0124 9.5138-5.524 13.062-2.4716 1.7408 1.4974 2.07 2.4203 2.3322 6.5392 0.35143 5.5191-1.3175 12.345-3.5688 14.596-1.7357 1.7357-5.6267 1.9005-7.8644 0.33314zm-148.14 59.298c24.26-3.5794 42.941-19.258 49.566-41.601 1.7074-5.7576 1.9671-7.9483 1.9658-16.585-0.001-9.0526-0.2123-10.649-2.3374-17.69-5.3605-17.761-14.798-27.612-31.87-33.269-6.5435-2.168-21.674-2.7395-29.527-1.1153-13.147 2.7189-24.204 8.6592-33.797 18.158-6.8346 6.7673-10.458 12.291-13.634 20.783-1.8182 4.862-2.0217 6.3741-2.0654 15.344-0.0412 8.4563 0.24111 11.062 1.8796 17.352 4.8483 18.61 11.366 28.189 23.236 34.148 2.8571 1.4344 11.445 4.0277 15.717 4.7458 3.7978 0.63841 15.753 0.48281 20.866-0.27156zm-43.333-40.159c5.4344-3.9982 22.744 14.469 34.922 12.69 13.606 1.2826 29.299-13.189 34.348-12.193 7.727 5.0021-3.813 10.5-9.493 13.435-13.035 6.7359-13.707 7.2971-25.274 7.703-13.027 0.29797-40.439-15.953-34.503-21.635zm47.213-21.276s-8.1024-4.4944-4.0396-12.696c2.1645-6.0939 11.264-7.2735 15.847-2.4584 7.5806 9.7385-5.8865 20.268-11.807 15.154zm-33.029-1.8304c-2.3804-2.2072-3.9007-3.6745-4.5062-7.7426-0.71597-4.8098 2.8435-8.5393 9.9503-8.5486 2.3344-0.003 6.3558 0.35215 8.2553 3.7341 1.6193 2.8831 1.3984 7.872 1.0449 9.756-0.84089 4.4823-4.0888 4.9332-7.0684 5.0378-0.40955 0.0144-6.5143-1.1595-7.676-2.2367zm282.01 57.229c-0.30867-0.50676-3.2926-4.4391-6.6309-8.7386-5.8968-7.5945-6.1685-7.8308-9.536-8.2923-7.3623-1.0091-7.2689-0.41017 0.93097 5.9689 3.5215 2.7395 8.3854 6.5565 10.809 8.4822 4.6193 3.6708 5.3517 4.0975 4.4272 2.5798zm-198.54-12.03c5.0675-2.4669 10.788-5.1202 12.712-5.8963 1.9242-0.77606 3.4997-1.6056 3.5012-1.8436 0.001-0.23791-3.217-1.5647-7.1522-2.9484-3.9353-1.3837-7.3452-2.6021-7.5776-2.7076-0.23244-0.10543-1.4466 1.8847-2.6981 4.4226-1.9258 3.9052-4.4124 7.6489-8.6523 13.026-1.0001 1.2685-1.4157 1.4392 9.8669-4.0533z"/>
<g id="text4181" transform="rotate(-3.4112)">
<path id="path4301" d="m602.09 822.39h3.1196v-12.831h0.0565l4.3053 9.881h2.5973l4.3053-9.881h0.0706v12.831h3.1196v-20.581h-2.9502l-5.7875 13.41-5.9004-13.41h-2.9361v20.581z"/>
</g>
<g id="text4154" transform="rotate(3.884)">
<path id="path4304" d="m884.32 726.36h3.1196v-12.831h0.0565l4.3053 9.881h2.5973l4.3053-9.881h0.0706v12.831h3.1196v-20.581h-2.9502l-5.7875 13.41-5.9004-13.41h-2.9361v20.581z"/>
</g>
</g>
</g>
</svg>
