<svg xmlns="http://www.w3.org/2000/svg" viewBox="0 0 433.72966 238.69098" height="254.604" width="462.652"><path d="M27.736 231.428c-1.958-15.937-.284-31.94 6.08-58.113C36.352 162.88 45.02 133.46 46.841 129.1l1.151-2.754-2.672-2.039c-2.612-1.992-2.705-2.006-4.075-.615-1.613 1.636-4.363 14.103-5.151 23.345l-.51 5.982-3.416-.015c-1.879-.009-3.888-.053-4.465-.1-1.28-.101-.818-8.661.947-17.526 1.126-5.653 1.124-5.67-.334-3.796-2.862 3.678-5.642 10.29-6.016 14.31-.38 4.075-.383 4.08-4.085 5.53-2.038.799-3.917 1.24-4.175.98-.258-.259-.467-3.089-.465-6.288.004-5.001.356-6.562 2.51-11.119 1.379-2.916 3.054-5.907 3.724-6.646 1.972-2.18.586-2.352-2.56-.318-3.926 2.537-6.84 5.4-8.225 8.077l-1.145 2.214-2.847-1.183c-5.91-2.455-5.781-2.274-3.904-5.427 4.877-8.19 13.702-13.974 25.121-16.464 7.334-1.6 8.22-2.512 6.114-6.296-.86-1.547-2.645-5.887-3.967-9.645-9.089-25.838-7.762-45.734 4.26-63.857 4.504-6.788 9.117-11.566 16.545-17.134C59.958 10.252 86.594-3.166 103.098.654c12.037 1.932 21.15 7.071 31.07 13.542 15.73 10.261 16.83 18.029 21.463 34.255.987 3.453 1.334 7.94 1.438 18.559.127 12.945.245 14.047 1.57 14.575 3.98 1.589 28.912 10.442 29.896 10.617.627.11 2.847-.198 4.934-.686 2.088-.489 5.142-1.079 6.788-1.311 1.645-.232 3.081-.512 3.19-.622.11-.11-.12-2.407-.509-5.105-1.125-7.786-.89-25.095.432-31.694 2.972-14.84 12.31-25.473 33.223-37.83 11.51-7.096 17.582-9.707 30.585-11.939 18.66-3.203 29.605 3.446 39.744 10.258 6.382 4.288 17.836 18.539 22.637 25.071 8.175 11.122 12.31 22.645 12.303 34.293-.003 3.815-.31 8.132-.686 9.594-1.786 6.966-1.845 6.638 1.265 7.039 6.075.784 47.447 7.331 47.645 7.54.114.122-.122 2.123-.526 4.446l-.734 4.223-9.248-1.369c-5.086-.753-9.494-1.287-9.796-1.187-.301.1 2.694 2.054 6.656 4.341 4.156 2.4 7.058 4.544 6.857 5.066-.19.499-1.218 2.285-2.281 3.97l-1.934 3.063-7.41-4.358c-4.076-2.396-9.085-5.33-11.13-6.52l-3.72-2.162 2.201 2.933c1.21 1.613 4.373 5.664 7.027 9.002l4.825 6.069-2.5 2.087c-1.376 1.149-2.352 2.207-2.17 2.353 6.477 5.165 36.021 28.087 48.128 37.34 13.905 10.628 19.381 15.001 19.365 15.466-.01.26-7.609 4.488-16.889 9.395-9.28 4.906-24.387 12.892-33.572 17.746-27.338 14.45-26.182 13.742-26.234 16.067-.026 1.128-.794 4.612-1.708 7.743l-1.662 5.693-4.744.226-4.744.226v-2.313c0-2.157-.192-2.318-2.847-2.37-1.565-.03-4.123-.629-5.683-1.328l-2.837-1.272 1.845-3.967 1.844-3.967 3.012 1.062c1.656.585 3.175.898 3.376.697 1.045-1.045-.725-3.194-3.881-4.714-1.957-.943-4.583-2.546-5.835-3.562l-2.276-1.848 3.205-3.205 3.204-3.205 2.343 1.732 2.343 1.732-.416-2.523c-.229-1.387-1.122-8.67-1.985-16.186-.862-7.515-2.079-17.25-2.703-21.633-.624-4.384-1.302-9.166-1.507-10.627-2.144-15.294-6.275-37.032-8.391-44.16l-1.086-3.655-4.658 4.98c-9.35 9.995-22.111 18.127-32.208 20.524-9.516 2.26-30.24 1.036-36.233-2.14-.998-.528-1.59-.486-1.978.14-.304.493-.784 6.591-1.065 13.553-.505 12.499-2.713 82.051-2.733 86.095-.01 2.047-.1 2.088-4.614 2.088h-4.603l.45-11.576c.248-6.367.786-22.848 1.196-36.625.41-13.777 1.106-32.343 1.546-41.257.44-8.914.692-16.26.56-16.324a6163.33 6163.33 0 0 0-6.31-3.037c-6.528-3.139-14.685-8.327-17.973-11.43-1.255-1.186-6.907-3.683-14.8-6.54-14.868-5.382-14.316-5.376-26.893-.29-9.62 3.891-33.457 15.323-34.132 16.37-.238.368 1.048 9.29 2.856 19.823s5.835 34.182 8.948 52.552 5.885 34.508 6.158 35.866l.498 2.467h-4.635c-4.178 0-4.675-.168-5.045-1.708-.505-2.1-6.53-37.649-9.102-53.704-1.036-6.471-2.567-15.353-3.401-19.735-.835-4.384-2.719-15.263-4.187-24.177-2.665-16.185-3.187-18.36-4.087-17.037-.952 1.398-9.732 6.228-15.433 8.489-3.217 1.276-9.365 3.044-13.663 3.929-6.768 1.394-9.389 1.549-19.58 1.157-6.47-.248-12.958-.536-14.416-.639l-2.65-.187-2.06 22.392c-2.775 30.156-3.316 36.153-5.135 56.93-.86 9.81-1.75 19.288-1.98 21.063l-.419 3.226h-9.212l.47-5.124c4.155-45.35 6.56-73.43 6.346-74.075-.306-.918-6.707 24.908-8.436 34.036-2.37 12.513-2.948 19.63-2.435 29.982.28 5.636.706 11.358.948 12.714l.44 2.467H28.616l-.881-7.167zm325.17-20.812c.396-.36 5.844-3.306 12.107-6.548 6.262-3.243 13.094-6.837 15.181-7.986 2.088-1.15 7.382-3.965 11.766-6.258 14.805-7.744 18.977-10.041 18.934-10.43-.024-.213-2.154-1.924-4.734-3.802-3.945-2.873-20.283-15.393-24.068-18.443-10.288-8.293-43.63-33.777-43.887-33.543-.132.12.616 4.78 1.662 10.352 3.476 18.503 10.345 68.43 10.345 75.189 0 2.101 1.245 2.78 2.695 1.468zm-64.202-81.072c5.87-1.63 9.395-3.567 16.343-8.987 13.717-10.698 23.215-23.872 26.583-36.873 1.424-5.496 1.56-15.696.28-20.942-2.352-9.628-9.763-20.864-20.222-30.657-13.977-13.087-27.53-18.535-44.893-18.045-7.804.448-12.6 2.086-19.191 5.37-17.531 8.739-30.207 19.762-33.813 29.403-2.822 7.546-3.684 19.817-2.203 31.362 1.427 11.126 4.721 22.198 8.14 27.359 6.313 9.532 30.284 21.034 48.504 23.274 6.256.77 15.119.223 20.472-1.263zm-35.274-24.6c-8.583-1.44-14.946-4.718-20.331-10.474-5.192-5.55-4.731-9.206 1.16-9.206 2.53 0 3.45.545 6.926 4.106 3.03 3.104 5.014 4.416 8.127 5.373 5.737 1.766 18.49 2.281 29.172 1.18 13.844-1.427 21.66-4.252 30.172-10.905 2.403-1.877 4.794-3.325 5.313-3.217 6.327 1.32 6.143 6.328-.41 11.17-4.704 3.475-16.088 8.636-22.176 10.053-10.647 2.479-29.07 3.41-37.953 1.92zm30.135-37.734c-2.757-2.952-4.657-8.851-5.23-16.24-.508-6.554-.084-7.403 4.712-9.406 6.88-2.875 12.16 1.376 13.01 10.475.874 9.367-2.123 16.167-7.505 17.027-2.47.394-3.107.157-4.987-1.856zm-35.607-2.067c-3.549-2.486-6.037-14.416-4.08-19.563 1.571-4.132 9.798-5.689 13.452-2.546 1.792 1.542 2.131 2.493 2.401 6.734.362 5.684-1.356 12.713-3.675 15.031-1.787 1.788-5.794 1.958-8.099.343zM95.403 126.208c24.983-3.686 44.22-19.832 51.043-42.84 1.759-5.93 2.026-8.186 2.025-17.08-.001-9.322-.219-10.966-2.407-18.217-5.52-18.29-15.24-28.435-32.82-34.26-6.739-2.233-22.32-2.822-30.407-1.15-13.539 2.8-24.925 8.918-34.804 18.7-7.038 6.969-10.77 12.657-14.04 21.402-1.873 5.007-2.082 6.564-2.127 15.801-.043 8.709.248 11.392 1.935 17.87 4.993 19.164 11.705 29.029 23.929 35.165 2.942 1.477 11.786 4.148 16.185 4.887 3.91.658 16.222.498 21.488-.28zM50.78 84.852c5.596-4.117 23.422 14.9 35.963 13.068 14.011 1.321 30.172-13.582 35.371-12.556 7.957 5.151-3.927 10.813-9.776 13.835-13.423 6.937-14.115 7.515-26.027 7.933-13.415.307-41.644-16.429-35.531-22.28zm48.62-21.91s-8.344-4.628-4.16-13.074c2.229-6.276 11.6-7.49 16.32-2.532 7.806 10.029-6.063 20.872-12.16 15.606zm-34.013-1.885c-2.452-2.273-4.017-3.784-4.641-7.973-.737-4.953 2.928-8.794 10.247-8.804 2.404-.003 6.545.363 8.501 3.846 1.668 2.969 1.44 8.106 1.076 10.047-.866 4.615-4.21 5.08-7.279 5.187-.422.015-6.708-1.194-7.905-2.303zM355.8 119.992c-.317-.522-3.39-4.572-6.828-9-6.073-7.82-6.352-8.064-9.82-8.539-7.582-1.039-7.486-.422.958 6.147a1705.43 1705.43 0 0 1 11.132 8.735c4.757 3.78 5.51 4.22 4.559 2.657zm-204.456-12.389c5.218-2.54 11.11-5.273 13.09-6.072 1.982-.8 3.605-1.653 3.606-1.898.001-.245-3.313-1.612-7.365-3.037-4.053-1.425-7.564-2.68-7.803-2.788-.24-.109-1.49 1.94-2.779 4.554-1.983 4.022-4.544 7.877-8.91 13.415-1.03 1.306-1.458 1.482 10.16-4.175z"/><path d="M89.685 172.624l3.207-.191-.786-13.19.058-.004 5.031 9.894 2.67-.16 3.82-10.42.073-.005.786 13.19 3.207-.191-1.26-21.157-3.034.181-5.127 14.14-6.887-13.424-3.019.18 1.261 21.157zm188.589-.531l3.205.218.895-13.183.058.004 3.734 10.452 2.669.182 5.112-9.852.073.005-.895 13.183 3.205.217 1.436-21.145-3.031-.206-6.882 13.374-5.127-14.19-3.017-.204-1.435 21.145z"/></svg>