<?xml version="1.0" encoding="UTF-8" standalone="no"?>
<svg
   xmlns:dc="http://purl.org/dc/elements/1.1/"
   xmlns:cc="http://creativecommons.org/ns#"
   xmlns:rdf="http://www.w3.org/1999/02/22-rdf-syntax-ns#"
   xmlns:svg="http://www.w3.org/2000/svg"
   xmlns="http://www.w3.org/2000/svg"
   version="1.1"
   id="svg2"
   viewBox="0 0 433.72966 238.69098"
   height="67.363899mm"
   width="122.40815mm">
  <defs
     id="defs4" />
  <metadata
     id="metadata7">
    <rdf:RDF>
      <cc:Work
         rdf:about="">
        <dc:format>image/svg+xml</dc:format>
        <dc:type
           rdf:resource="http://purl.org/dc/dcmitype/StillImage" />
        <dc:title></dc:title>
      </cc:Work>
    </rdf:RDF>
  </metadata>
  <g
     transform="translate(-130.67798,-206.03972)"
     id="layer1">
    <g
       transform="matrix(1.0298334,0,0,1.0298334,-448.95828,-429.8437)"
       id="g4158">
      <path
         style="fill:#000000"
         d="m 589.7971,842.20904 c -1.90183,-15.4755 -0.27618,-31.01496 5.90351,-56.43088 2.46386,-10.13342 10.88083,-38.70214 12.64997,-42.9363 l 1.11746,-2.67446 -2.59524,-1.97947 c -2.53578,-1.93414 -2.62643,-1.94783 -3.9569,-0.59742 -1.56577,1.58925 -4.23701,13.69511 -5.0022,22.66961 l -0.49525,5.80851 -3.31694,-0.0148 c -1.82431,-0.008 -3.77528,-0.0513 -4.33549,-0.096 -1.24346,-0.0993 -0.79428,-8.41148 0.91971,-17.01957 1.09297,-5.48923 1.09156,-5.50531 -0.32456,-3.68548 -2.77908,3.57138 -5.47863,9.99274 -5.84189,13.89601 -0.36825,3.95689 -0.37151,3.9613 -3.96681,5.36976 -1.97903,0.77528 -3.80334,1.20364 -4.05402,0.95193 -0.25068,-0.25172 -0.45402,-2.99979 -0.45188,-6.10684 0.004,-4.85609 0.3456,-6.37195 2.43769,-10.79737 1.33859,-2.8315 2.96563,-5.73584 3.61563,-6.4541 1.91551,-2.11662 0.56907,-2.28372 -2.48637,-0.30857 -3.81191,2.46415 -6.642,5.24346 -7.98627,7.84299 l -1.11194,2.15026 -2.76454,-1.14832 c -5.73971,-2.38414 -5.61358,-2.20879 -3.79076,-5.27006 4.73554,-7.95296 13.30503,-13.56951 24.39363,-15.9879 7.12151,-1.55317 7.98167,-2.43889 5.93753,-6.11398 -0.8356,-1.50228 -2.56934,-5.71665 -3.85276,-9.36529 -8.82593,-25.09128 -7.53685,-44.41103 4.13747,-62.00902 4.37328,-6.59232 8.85275,-11.23173 16.06585,-16.63943 10.44446,-7.83026 36.30962,-20.86048 52.33597,-17.14992 11.68924,1.87548 20.53728,6.86622 30.17023,13.14987 15.27498,9.96399 16.3429,17.50663 20.84346,33.26309 0.95777,3.35318 1.29538,7.71086 1.3962,18.0215 0.12296,12.57088 0.23811,13.64088 1.52376,14.15396 3.86537,1.54262 28.07561,10.13928 29.03188,10.30875 0.6081,0.10781 2.7641,-0.19203 4.79111,-0.66621 2.02703,-0.47417 4.99292,-1.04687 6.59088,-1.27265 1.59798,-0.22579 2.99245,-0.49755 3.09883,-0.60394 0.10643,-0.10643 -0.11645,-2.337 -0.49503,-4.95694 -1.09276,-7.56126 -0.86355,-24.36933 0.4197,-30.77723 2.88597,-14.41094 11.95291,-24.73554 32.26105,-36.73598 11.17656,-6.88976 17.07368,-9.42579 29.69989,-11.59344 18.12005,-3.11082 28.74945,3.34606 38.59398,9.96063 6.19778,4.1643 17.31976,18.00349 21.9821,24.34583 7.93896,10.79963 11.9536,21.99029 11.9467,33.30097 -0.003,3.70462 -0.30175,7.8966 -0.66557,9.31551 -1.73449,6.76502 -1.79172,6.44641 1.22776,6.83584 5.89973,0.76091 46.07427,7.1193 46.26575,7.32245 0.11144,0.11833 -0.11808,2.06063 -0.51024,4.3163 l -0.71295,4.1012 -8.97979,-1.3292 c -4.93886,-0.73106 -9.21953,-1.24982 -9.5126,-1.15282 -0.29305,0.097 2.61546,1.99409 6.46335,4.21575 4.03522,2.3298 6.85329,4.41177 6.65853,4.91929 -0.18571,0.48396 -1.18267,2.21852 -2.21548,3.85459 l -1.87783,2.97468 -7.19625,-4.2316 c -3.95794,-2.32738 -8.8216,-5.17653 -10.80814,-6.33144 l -3.61189,-2.09986 2.13769,2.8479 c 1.17574,1.56633 4.2462,5.5 6.82325,8.74148 l 4.68553,5.89358 -2.4281,2.02707 c -1.33546,1.11489 -2.28301,2.14277 -2.10571,2.28419 6.28895,5.01551 34.97849,27.27479 46.73439,36.25968 13.50305,10.3202 18.82066,14.56693 18.80541,15.01828 -0.009,0.2534 -7.38874,4.35869 -16.40038,9.12288 -9.01165,4.76419 -23.68206,12.51921 -32.60091,17.23339 -26.547,14.03175 -25.42375,13.3438 -25.47487,15.60216 -0.0248,1.09502 -0.77109,4.47864 -1.65847,7.51916 l -1.61338,5.52822 -4.60686,0.21945 -4.60684,0.21944 0,-2.24646 c 0,-2.09479 -0.18662,-2.25016 -2.7641,-2.30112 -1.52027,-0.03 -4.00386,-0.61054 -5.5191,-1.28992 l -2.755,-1.23526 1.79146,-3.85192 1.79145,-3.85195 2.92391,1.03163 c 1.60815,0.56738 3.08366,0.87185 3.27892,0.67658 1.01451,-1.01449 -0.70377,-3.10155 -3.76914,-4.5781 -1.90025,-0.91533 -4.44978,-2.4718 -5.66562,-3.45884 l -2.21063,-1.79459 3.11198,-3.11199 3.11198,-3.11196 2.27488,1.68189 2.27489,1.6819 -0.40363,-2.44986 c -0.222,-1.34742 -1.08917,-8.42032 -1.92706,-15.71757 -0.83788,-7.29724 -2.01928,-16.75049 -2.62533,-21.00722 -0.60604,-4.25673 -1.26462,-8.90044 -1.46351,-10.31934 -2.08179,-14.85201 -6.09275,-35.96112 -8.14803,-42.88203 l -1.05412,-3.5496 -4.52405,4.83621 c -9.0786,9.70507 -21.4713,17.6023 -31.27566,19.9304 -9.2402,2.19413 -29.36363,1.00548 -35.18398,-2.07826 -0.96893,-0.51336 -1.54474,-0.47248 -1.92104,0.13641 -0.29555,0.47822 -0.76098,6.40003 -1.03427,13.15955 -0.49068,12.13678 -2.63438,79.67696 -2.65355,83.60406 -0.01,1.98738 -0.0973,2.02701 -4.48028,2.02701 l -4.47037,0 0.43729,-11.24071 c 0.24051,-6.18239 0.76321,-22.18657 1.16155,-35.56486 0.39835,-13.37828 1.07359,-31.40663 1.50055,-40.06298 0.42697,-8.65636 0.6721,-15.78996 0.54473,-15.85244 -0.12737,-0.0625 -2.88513,-1.38958 -6.12835,-2.94907 -6.3384,-3.04781 -14.26023,-8.0859 -17.45153,-11.09873 -1.21929,-1.15112 -6.7079,-3.57621 -14.37337,-6.35078 -14.43745,-5.22572 -13.90112,-5.21995 -26.11391,-0.28064 -9.3407,3.77773 -32.4887,14.87926 -33.14385,15.89545 -0.23095,0.35821 1.01699,9.02083 2.7732,19.25025 1.75621,10.22945 5.66644,33.19346 8.68941,51.03119 3.02298,17.83771 5.71389,33.5102 5.97981,34.82777 l 0.48349,2.39555 -4.50066,0 c -4.05779,0 -4.53992,-0.1632 -4.89951,-1.65846 -0.49027,-2.03863 -6.34081,-36.55947 -8.83823,-52.14952 -1.00662,-6.28374 -2.4931,-14.90777 -3.3033,-19.16448 -0.81021,-4.25673 -2.63949,-14.82142 -4.06508,-23.4771 -2.58854,-15.71677 -3.09501,-17.8278 -3.96919,-16.54401 -0.92435,1.35744 -9.45044,6.04733 -14.98557,8.24299 -3.12386,1.23916 -9.09433,2.95618 -13.26772,3.81561 -6.57225,1.35341 -9.11732,1.50387 -19.01296,1.12403 -6.28374,-0.24121 -12.58328,-0.52047 -13.99898,-0.62059 l -2.57397,-0.18202 -2.00045,21.74431 c -2.69394,29.28268 -3.21927,35.10715 -4.98609,55.28218 -0.8343,9.52697 -1.69968,18.73144 -1.92306,20.4544 l -0.40613,3.13266 -4.47265,0 -4.47265,0 0.4559,-4.97539 c 4.03526,-44.03804 6.37122,-71.30567 6.16229,-71.93245 -0.2971,-0.89131 -6.51313,24.18768 -8.19188,33.05065 -2.30162,12.15148 -2.86271,19.06164 -2.36405,29.11528 0.27146,5.47293 0.68563,11.02879 0.92035,12.34636 l 0.42681,2.39555 -6.59937,0 -6.59935,0 -0.85526,-6.95935 z m 315.7642,-20.2096 c 0.38512,-0.34844 5.67563,-3.20982 11.75667,-6.35862 6.08104,-3.14882 12.71488,-6.63826 14.7419,-7.75433 2.02701,-1.11607 7.16825,-3.85079 11.42498,-6.07716 14.37655,-7.51926 18.42755,-9.7507 18.38567,-10.12751 -0.0229,-0.20649 -2.09156,-1.86806 -4.5969,-3.69237 -3.83079,-2.78946 -19.69607,-14.94709 -23.37102,-17.90931 -9.99036,-8.05283 -42.36779,-32.79862 -42.61716,-32.57194 -0.1288,0.11707 0.59751,4.64061 1.614,10.05233 3.37492,17.96756 10.04516,66.44975 10.04516,73.01252 0,2.04098 1.20894,2.69999 2.6167,1.42639 z m -62.34362,-78.72641 c 5.70083,-1.58212 9.12294,-3.4638 15.86973,-8.72612 13.31986,-10.38916 22.54269,-23.18203 25.81393,-35.80617 1.38314,-5.3377 1.51532,-15.24221 0.27141,-20.33591 -2.28316,-9.34926 -9.48044,-20.26112 -19.63606,-29.77037 -13.57312,-12.70926 -26.73352,-17.99913 -43.59369,-17.52268 -7.57876,0.4347 -12.23587,2.02541 -18.63578,5.21539 -17.02365,8.4853 -29.33273,19.18873 -32.83398,28.55098 -2.7403,7.3275 -3.57758,19.24447 -2.13969,30.45451 1.38577,10.80378 4.58439,21.55461 7.90417,26.56657 6.13097,9.25606 29.40751,20.42499 47.10056,22.60058 6.0751,0.74701 14.68085,0.21594 19.8794,-1.22678 z m -34.25277,-23.88719 c -8.33493,-1.3987 -14.5144,-4.58255 -19.74268,-10.172 -5.04138,-5.38965 -4.59417,-8.93877 1.12634,-8.93877 2.4572,0 3.34968,0.52907 6.72581,3.9871 2.94218,3.01357 4.86908,4.28754 7.89159,5.21754 5.57113,1.71419 17.95494,2.21492 28.32803,1.14546 13.44402,-1.38608 21.0329,-4.12871 29.29857,-10.58855 2.33322,-1.82349 4.65508,-3.22929 5.15967,-3.12401 6.14329,1.28177 5.96442,6.14481 -0.39895,10.84606 -4.56784,3.37471 -15.62247,8.38655 -21.53359,9.76268 -10.33909,2.40695 -28.22899,3.31201 -36.85479,1.86449 z m 29.26294,-36.643 c -2.67739,-2.86615 -4.52254,-8.595 -5.07883,-15.76881 -0.49361,-6.36564 -0.0811,-7.18919 4.57561,-9.1349 6.68086,-2.79144 11.80821,1.33682 12.63322,10.17153 0.8494,9.09604 -2.06092,15.69933 -7.28726,16.53424 -2.39778,0.38305 -3.01668,0.15274 -4.84274,-1.80206 z m -34.57658,-2.00718 c -3.44592,-2.41362 -5.86165,-13.99874 -3.96128,-18.99709 1.52552,-4.01244 9.51378,-5.52395 13.0623,-2.47162 1.74081,1.49737 2.06997,2.42028 2.33224,6.53915 0.35143,5.51914 -1.31752,12.34511 -3.56881,14.59642 -1.73572,1.7357 -5.62668,1.90054 -7.86445,0.33314 z m -148.14345,59.29758 c 24.26017,-3.57939 42.94053,-19.25775 49.56642,-41.60092 1.70741,-5.75757 1.96709,-7.94829 1.96583,-16.58464 -10e-4,-9.05259 -0.2123,-10.6494 -2.33739,-17.6903 -5.36048,-17.76053 -14.79822,-27.61242 -31.87,-33.26858 -6.54348,-2.16796 -21.67356,-2.73946 -29.52714,-1.1153 -13.14727,2.71891 -24.20389,8.65924 -33.79718,18.15803 -6.83464,6.76733 -10.45823,12.291 -13.63399,20.78318 -1.81818,4.86195 -2.02172,6.3741 -2.06543,15.34425 -0.0412,8.4563 0.24111,11.06231 1.8796,17.35162 4.84833,18.61027 11.36606,28.18895 23.236,34.14847 2.8571,1.43445 11.44543,4.02767 15.71724,4.74575 3.79775,0.63841 15.75308,0.48281 20.86604,-0.27156 z m -43.33299,-40.15882 c 5.43435,-3.99821 22.74415,14.46858 34.92203,12.69009 13.60578,1.28255 29.29931,-13.18875 34.3475,-12.19304 7.72703,5.00208 -3.81304,10.5 -9.493,13.43522 -13.0347,6.73593 -13.70706,7.2971 -25.274,7.70305 -13.02735,0.29797 -40.43948,-15.95301 -34.50253,-21.63532 z m 47.21295,-21.27611 c 0,0 -8.10241,-4.49444 -4.03959,-12.6955 2.16453,-6.0939 11.26436,-7.27352 15.84681,-2.4584 7.58062,9.7385 -5.88652,20.26765 -11.80722,15.1539 z m -33.02935,-1.83043 c -2.38044,-2.20725 -3.90067,-3.67451 -4.50623,-7.74257 -0.71597,-4.80978 2.84348,-8.53929 9.95034,-8.54855 2.33445,-0.003 6.35584,0.35215 8.25533,3.73407 1.61929,2.88306 1.39836,7.87205 1.04493,9.75599 -0.84089,4.4823 -4.08879,4.93325 -7.06841,5.03777 -0.40955,0.0144 -6.5143,-1.15954 -7.67596,-2.23671 z m 282.00873,57.22932 c -0.30867,-0.50676 -3.2926,-4.43913 -6.63094,-8.7386 -5.89678,-7.59449 -6.1685,-7.83076 -9.53595,-8.29233 -7.36232,-1.00912 -7.2689,-0.41017 0.93097,5.9689 3.52151,2.73953 8.38542,6.55653 10.80868,8.48219 4.61931,3.67075 5.35166,4.09751 4.42724,2.57984 z M 709.82553,721.95574 c 5.06754,-2.46691 10.788,-5.12024 12.71214,-5.8963 1.92415,-0.77606 3.49969,-1.60565 3.50121,-1.84356 0.001,-0.23791 -3.21699,-1.56468 -7.15223,-2.94838 -3.93526,-1.3837 -7.34518,-2.60211 -7.57763,-2.70757 -0.23244,-0.10543 -1.44659,1.8847 -2.69813,4.42257 -1.92579,3.9052 -4.41239,7.6489 -8.65229,13.0265 -1.00014,1.26851 -1.41573,1.43923 9.86693,-4.05326 z"
         id="path4171" />
      <g
         id="text4181"
         style="font-style:normal;font-variant:normal;font-weight:normal;font-stretch:normal;font-size:28.90908051px;line-height:125%;font-family:FontAwesome;-inkscape-font-specification:FontAwesome;letter-spacing:0px;word-spacing:0px;fill:#000000;fill-opacity:1;stroke:none;stroke-width:1px;stroke-linecap:butt;stroke-linejoin:miter;stroke-opacity:1"
         transform="matrix(0.99822816,-0.0595024,0.0595024,0.99822816,0,0)">
        <path
           id="path4301"
           style="font-style:normal;font-variant:normal;font-weight:bold;font-stretch:normal;font-family:'DIN Alternate';-inkscape-font-specification:'DIN Alternate Bold'"
           d="m 602.0896,822.38635 3.11958,0 0,-12.83123 0.0565,0 4.3053,9.88104 2.5973,0 4.30531,-9.88104 0.0706,0 0,12.83123 3.11958,0 0,-20.58078 -2.95019,0 -5.78746,13.40998 0,0 -5.90039,-13.40998 -2.93608,0 0,20.58078 z" />
      </g>
      <g
         id="text4154"
         style="font-style:normal;font-variant:normal;font-weight:normal;font-stretch:normal;font-size:28.90908051px;line-height:125%;font-family:FontAwesome;-inkscape-font-specification:FontAwesome;letter-spacing:0px;word-spacing:0px;fill:#000000;fill-opacity:1;stroke:none;stroke-width:1px;stroke-linecap:butt;stroke-linejoin:miter;stroke-opacity:1"
         transform="matrix(0.9977032,0.06773715,-0.06773715,0.9977032,0,0)">
        <path
           id="path4304"
           style="font-style:normal;font-variant:normal;font-weight:bold;font-stretch:normal;font-family:'DIN Alternate';-inkscape-font-specification:'DIN Alternate Bold'"
           d="m 884.31531,726.36401 3.11958,0 0,-12.83122 0.0565,0 4.30531,9.88103 2.5973,0 4.30531,-9.88103 0.0706,0 0,12.83122 3.11958,0 0,-20.58078 -2.95019,0 -5.78747,13.40998 0,0 -5.90038,-13.40998 -2.93608,0 0,20.58078 z" />
      </g>
    </g>
  </g>
</svg>
